<svg xmlns="http://www.w3.org/2000/svg" width="140.822" height="39.999" viewBox="0 0 140.822 39.999"><g id="Group_11" data-name="Group 11" transform="translate(49.338 87.803)"><g id="AmbiSpace_Logo" data-name="AmbiSpace Logo" transform="translate(-49.338 -87.803)"><path id="Path_1" data-name="Path 1" d="M4.523-156.934a4.645,4.645,0,0,0,2.575-.7,4.212,4.212,0,0,0,1.577-2.018v-2.273H4.546a4.036,4.036,0,0,0-2.575.649,2.183,2.183,0,0,0-.812,1.786,2.215,2.215,0,0,0,.881,1.855,3.9,3.9,0,0,0,2.482.7m.649-11.342a4.816,4.816,0,0,1,3.456,1.136,4.443,4.443,0,0,1,1.206,3.386v7.677H8.721v-2.157a4,4,0,0,1-1.693,1.647,5.591,5.591,0,0,1-2.667.6,4.9,4.9,0,0,1-3.178-.951A3.036,3.036,0,0,1,0-159.439,3.136,3.136,0,0,1,1.09-161.9a5.149,5.149,0,0,1,3.433-.928H8.674v-.974a3.411,3.411,0,0,0-.9-2.575,3.8,3.8,0,0,0-2.69-.881,6.3,6.3,0,0,0-2.3.418A5.765,5.765,0,0,0,.9-165.725l-.58-.835a6.518,6.518,0,0,1,2.18-1.276,7.943,7.943,0,0,1,2.667-.441" transform="translate(0 179.681)" fill="#56458f"></path><path id="Path_2" data-name="Path 2" d="M79.852-168.276a4.724,4.724,0,0,1,3.549,1.322,5.241,5.241,0,0,1,1.276,3.8v7.074h-1.16v-6.981a4.356,4.356,0,0,0-1-3.108,3.619,3.619,0,0,0-2.783-1.067,4.143,4.143,0,0,0-3.224,1.276,4.772,4.772,0,0,0-1.206,3.433v6.448h-1.16v-6.981a4.356,4.356,0,0,0-1-3.108,3.618,3.618,0,0,0-2.783-1.067,4.144,4.144,0,0,0-3.224,1.276,4.772,4.772,0,0,0-1.206,3.433v6.448h-1.16v-12.107h1.113v2.6A4.433,4.433,0,0,1,67.7-167.58a5.5,5.5,0,0,1,2.83-.7,5.162,5.162,0,0,1,2.806.742,4.022,4.022,0,0,1,1.624,2.18,4.7,4.7,0,0,1,1.9-2.134,5.543,5.543,0,0,1,2.992-.789" transform="translate(-53.769 179.681)" fill="#56458f"></path><path id="Path_3" data-name="Path 3" d="M194.806-181.5a4.8,4.8,0,0,0,2.5-.649,4.887,4.887,0,0,0,1.763-1.809,5.433,5.433,0,0,0,.626-2.644,5.433,5.433,0,0,0-.626-2.644,4.889,4.889,0,0,0-1.763-1.809,4.8,4.8,0,0,0-2.5-.649,4.665,4.665,0,0,0-2.482.649,4.66,4.66,0,0,0-1.74,1.809,5.2,5.2,0,0,0-.649,2.644,5.2,5.2,0,0,0,.649,2.644,4.658,4.658,0,0,0,1.74,1.809,4.663,4.663,0,0,0,2.482.649m.069-11.249a6.122,6.122,0,0,1,3.062.766,5.9,5.9,0,0,1,2.157,2.18,6.66,6.66,0,0,1,.765,3.2,6.505,6.505,0,0,1-.765,3.178,5.9,5.9,0,0,1-2.157,2.18,5.9,5.9,0,0,1-3.062.789,5.412,5.412,0,0,1-2.922-.789,5.233,5.233,0,0,1-2.041-2.157v2.853H188.8v-17.21h1.16v7.863a5.356,5.356,0,0,1,2.018-2.111,5.8,5.8,0,0,1,2.9-.742" transform="translate(-156.718 204.154)" fill="#56458f"></path><path id="Path_4" data-name="Path 4" d="M262-191.3h1.16v12.107H262Zm.58-2.946a.929.929,0,0,1-.673-.278.842.842,0,0,1-.278-.649.929.929,0,0,1,.278-.673.929.929,0,0,1,.673-.278,1.011,1.011,0,0,1,.673.255.929.929,0,0,1,.278.673.929.929,0,0,1-.278.673.929.929,0,0,1-.673.278" transform="translate(-217.175 202.794)" fill="#56458f"></path><path id="Path_5" data-name="Path 5" d="M485.506-156.956a10.073,10.073,0,0,1-2.9-.418,6.155,6.155,0,0,1-2.18-1.021l.928-1.763a6.474,6.474,0,0,0,1.971.928,8.078,8.078,0,0,0,2.343.348q2.922,0,2.922-1.67a1.093,1.093,0,0,0-.394-.881,2.74,2.74,0,0,0-.974-.487c-.394-.093-.974-.209-1.693-.325a16.049,16.049,0,0,1-2.412-.533,3.729,3.729,0,0,1-1.624-1.021,2.9,2.9,0,0,1-.673-2.018,3.171,3.171,0,0,1,1.392-2.69,6.247,6.247,0,0,1,3.734-1,9.913,9.913,0,0,1,2.459.3,6.778,6.778,0,0,1,2.018.812l-.951,1.763a6.358,6.358,0,0,0-3.549-.974,4.14,4.14,0,0,0-2.157.464,1.406,1.406,0,0,0-.742,1.229,1.182,1.182,0,0,0,.417.951,2.746,2.746,0,0,0,1.044.51c.394.116.974.232,1.716.371a19.59,19.59,0,0,1,2.412.534,3.813,3.813,0,0,1,1.554,1,2.711,2.711,0,0,1,.649,1.948,3.033,3.033,0,0,1-1.415,2.644,6.641,6.641,0,0,1-3.9,1" transform="translate(-398.791 180.7)" fill="#56458f"></path><path id="Path_6" data-name="Path 6" d="M552.474-158.9a4.124,4.124,0,0,0,2.134-.557,3.778,3.778,0,0,0,1.484-1.531,4.673,4.673,0,0,0,.534-2.25,4.834,4.834,0,0,0-.534-2.273,3.866,3.866,0,0,0-1.484-1.508,4.346,4.346,0,0,0-2.134-.533,4.233,4.233,0,0,0-2.087.533,3.923,3.923,0,0,0-1.484,1.531,4.434,4.434,0,0,0-.557,2.25,4.676,4.676,0,0,0,.533,2.25,3.638,3.638,0,0,0,1.484,1.531,4.1,4.1,0,0,0,2.111.557m.186-10.6a6.419,6.419,0,0,1,3.2.789,5.651,5.651,0,0,1,2.227,2.2,6.565,6.565,0,0,1,.789,3.27,6.564,6.564,0,0,1-.789,3.27,5.709,5.709,0,0,1-2.227,2.227,6.422,6.422,0,0,1-3.2.789,5.485,5.485,0,0,1-2.412-.51,5.094,5.094,0,0,1-1.879-1.484v6.355h-2.227v-16.792h2.134v1.948a4.712,4.712,0,0,1,1.879-1.554,5.976,5.976,0,0,1,2.5-.51" transform="translate(-453.34 180.7)" fill="#56458f"></path><path id="Path_7" data-name="Path 7" d="M626.742-158.673a4.007,4.007,0,0,0,2.2-.58,3.155,3.155,0,0,0,1.345-1.6v-1.716h-3.433c-1.879,0-2.83.626-2.83,1.9a1.684,1.684,0,0,0,.719,1.461,3.342,3.342,0,0,0,1.995.533m.51-10.831a5.6,5.6,0,0,1,3.92,1.253,4.842,4.842,0,0,1,1.345,3.734v7.422h-2.111v-1.624a3.5,3.5,0,0,1-1.577,1.3,6.118,6.118,0,0,1-2.459.464,5.028,5.028,0,0,1-3.294-1,3.188,3.188,0,0,1-1.253-2.621,3.261,3.261,0,0,1,1.183-2.621,5.88,5.88,0,0,1,3.757-.974h3.525v-.441a2.851,2.851,0,0,0-.835-2.2,3.51,3.51,0,0,0-2.459-.765,6.741,6.741,0,0,0-2.134.348,6.1,6.1,0,0,0-1.763.974l-.928-1.67a6.816,6.816,0,0,1,2.273-1.183,10.009,10.009,0,0,1,2.806-.394" transform="translate(-516.162 180.7)" fill="#56458f"></path><path id="Path_8" data-name="Path 8" d="M697.039-156.956a6.845,6.845,0,0,1-3.34-.812,5.855,5.855,0,0,1-2.319-2.25,6.243,6.243,0,0,1-.835-3.224,6.328,6.328,0,0,1,.835-3.247,5.8,5.8,0,0,1,2.319-2.227,6.835,6.835,0,0,1,3.34-.788,6.6,6.6,0,0,1,2.992.673,4.8,4.8,0,0,1,2.018,1.948l-1.693,1.09a3.909,3.909,0,0,0-1.438-1.322,4.031,4.031,0,0,0-1.9-.441,4.373,4.373,0,0,0-2.157.533,3.635,3.635,0,0,0-1.508,1.508,4.586,4.586,0,0,0-.556,2.273,4.525,4.525,0,0,0,.556,2.273,3.559,3.559,0,0,0,1.508,1.531,4.371,4.371,0,0,0,2.157.533,4.03,4.03,0,0,0,1.9-.441,3.908,3.908,0,0,0,1.438-1.322l1.693,1.067a4.8,4.8,0,0,1-2.018,1.948,6.325,6.325,0,0,1-2.992.7" transform="translate(-573.205 180.7)" fill="#56458f"></path><path id="Path_9" data-name="Path 9" d="M762.84-167.625a3.819,3.819,0,0,0-2.667.974A3.921,3.921,0,0,0,758.9-164.1h7.886a3.95,3.95,0,0,0-1.253-2.551,3.877,3.877,0,0,0-2.69-.974m6.077,4.453c0,.162-.023.394-.046.673H758.9a3.814,3.814,0,0,0,1.438,2.6,4.546,4.546,0,0,0,3.015,1,4.556,4.556,0,0,0,3.549-1.484l1.229,1.438a5.548,5.548,0,0,1-2.064,1.484,7.17,7.17,0,0,1-2.783.51,7.241,7.241,0,0,1-3.456-.812,5.652,5.652,0,0,1-2.319-2.227,6.329,6.329,0,0,1-.835-3.247,6.524,6.524,0,0,1,.812-3.224,5.707,5.707,0,0,1,2.2-2.25,6.185,6.185,0,0,1,3.154-.789,6.184,6.184,0,0,1,3.154.789,5.916,5.916,0,0,1,2.157,2.25,6.9,6.9,0,0,1,.765,3.293" transform="translate(-628.094 180.7)" fill="#56458f"></path><path id="Path_10" data-name="Path 10" d="M275.812-220.355a25.138,25.138,0,0,1,.17-4.745c13.9,1.118,9.712,11.036,4.222,19.11-1.922-1.975-3.6-6.072-4.391-14.365m-2.441,24.6c-.228.451-.022.495.812.007a40.862,40.862,0,0,0,10.549-8.513c.455-.013.9-.057,1.314-.1,3.525-.395,13.39-3.1,18.073-7.524,4.364-4.119,2.786-9.929-1.793-14.874,5.745-5.486,11.935-9.82,8.563-8.344-.837,1.016-5.477,4.561-9.75,8.693l-.042.04q-.185.179-.369.36l-.035.034-.2.2-.2.2-.018.018-.18.18,0,0-.2.2-.2.2-.2.2-.183.19-.014.015-.2.206-.152.162-.2.21-.158.171-.187.2-.186.206-.159.178-.194.219-.182.208-.134.155-.211.248-.109.129q-.114.137-.226.273l-.09.111q-.117.144-.23.287l-.092.117q-.114.145-.224.289l-.084.11q-.11.146-.217.292l-.075.1q-.11.151-.217.3l-.065.093q-.106.151-.207.3l-.058.088c-.069.1-.136.205-.2.308l-.054.084c-.067.105-.132.211-.2.316l-.033.056q-.1.163-.19.325l-.032.056q-.089.158-.172.314l-.025.047q-.088.167-.169.333l-.018.037q-.079.162-.151.324l-.026.058q-.069.157-.131.312l-.024.058q-.061.155-.115.309l-.02.057q-.053.153-.1.3l-.017.057c-.03.1-.056.2-.081.3l-.014.058q-.035.149-.063.3l-.009.048c-.018.1-.033.2-.046.3l0,.044c-.012.1-.021.2-.026.3v.034c-.005.1-.007.2-.006.3v.018q0,.156.017.309c0,.112,0,.221.009.328l0,.048v.013l0,.035.005.081,0,.052.005.066.006.066,0,.048.007.06.007.061,0,.036.011.081,0,.03.012.076.007.043.011.063.007.04.014.07.007.032.015.068.009.04.014.06.01.039.016.061.011.041.014.051.013.046.017.056.012.037.022.066.007.021.022.064.013.036.018.048.016.041.019.047.017.041.021.05.016.036.021.047.018.039.025.054.013.028q.082.168.176.327h0l.048.08.046.075.049.076,0,.007h0q.05.076.1.151l.016.023.037.052.015.021c.033.046.067.092.1.138v0l.056.073,0,.006c.176.227.368.452.573.685l.023.026.046.052.07.079.019.021.052.058.017.019.055.062.147.164.009.01.065.073.007.008.069.077,0,0,.072.081v0l.074.084h0l.074.084,0,0,.072.082.153.178.013.015.065.076.157.187h0q.093.112.187.229c-8.109-1.369-8.561-11.5,3.056-20.431a27.917,27.917,0,0,0-3.886-2.58,3.922,3.922,0,0,0-.176-2.338,1.911,1.911,0,0,0-2.056-.8,1.594,1.594,0,0,1,1.232.8,3.484,3.484,0,0,1,.231,1.927c-.012.112-.026.227-.044.342l-.007.046-.015.091-.008.044-.017.092-.009.046q-.031.154-.068.311l-.015.061-.023.091-.013.048-.026.1-.016.057-.026.088-.018.059q-.024.08-.05.159l-.02.061-.029.085-.023.064-.031.084-.028.075-.024.064-.046.114-.016.039,0,0q-.027.067-.056.134l0,0-.031.069-.038.083-.027.059-.047.1-.025.052-.05.1-.028.054c-.024.046-.049.092-.074.138l0,.007-.017.031-.061.107-.034.058-.055.093-.029.047-.063.1-.029.045q-.043.066-.087.131l0,.006,0,0c-.031.046-.063.091-.1.137l-.022.031-.08.107-.03.039-.075.1-.031.039-.093.111-.016.019c-.038.044-.076.087-.115.13l-.017.018-.1.106-.034.035-.09.09-.03.03-.108.1-.017.015q-.13.118-.268.228l-.021.016-.112.086-.037.028-.11.078-.031.022c-.1.066-.2.129-.3.188l-.009.005c-.048.028-.1.054-.145.08l-.024.013q-.067.036-.136.069l-.027.013q-.075.036-.152.069l-.009,0q-.167.072-.341.132l-.028.01-.144.046-.038.011-.15.041-.025.007q-.184.046-.376.078l-.012,0q-.085.014-.172.025l-.041.005-.159.016a5.346,5.346,0,0,1-.957-.006c-5.5-.519-1.709-5.9-.768-5.791a.587.587,0,0,1,.369.19h0a1.63,1.63,0,0,1,.325.695l.011.041v0l.011.046v0l.01.042c.011.047.022.094.032.142l.009.042v.006l.029.145,0,.022.005.027.018.09,0,.008.009.049h0l.009.048,0,.01.007.039.027.136,0,.01.01.047h0l.012.056.008.04,0,.017.007.03.006.026,0,.021.008.035,0,.012.011.043v0l.012.046,0,.006.011.039,0,.014v0l.011.038,0,.01.007.021.009.03v0l.016.049v0c.011.031.021.061.033.09l0,.01.014.034.005.013.011.024.01.022,0,0,.015.031,0,.005.018.036h0l.018.033,0,0,.009.015.013.021.01.015.015.022.008.011.019.026.005.007.026.032a.3.3,0,0,0,.028.03h0a.329.329,0,0,0,.028.024l0,0h0l.031.021h0l.034.017h0l.035.013h0l.037.009h0l.037.005h.009l.035,0h.057l.039,0,.015,0,.033-.006.017,0,.034-.008.024-.006h0l.015,0,.015,0,.027-.009h0l.015-.005.043-.016.005,0,.044-.018.016-.007.047-.022.016-.008.032-.016.016-.008a4.591,4.591,0,0,0,2.2-3.247c0-1.667-2.3-.769-2.15-1.361a.709.709,0,0,1,.256-.308c-3.955-1.24-7.883-1.4-10.458.365-2.148,1.468-3.263,4.014-3.835,6.484-.15.014-.3.026-.451.044.15-.01.3-.014.445-.02h0c5.524-.223,9.6,2.085,11.5,5.743l.005.01a10.21,10.21,0,0,1,.651,1.565l.009.027q.061.192.115.387l.015.056a11.121,11.121,0,0,1,.317,1.669l.01.088q.021.195.035.392l.006.093a12.557,12.557,0,0,1,.016,1.29l0,.073c-.006.129-.014.259-.024.389,0,.049-.007.1-.012.148-.011.127-.023.254-.038.382-.005.045-.011.091-.017.136q-.078.631-.216,1.278c-.011.054-.022.107-.034.161-.028.126-.059.252-.091.378l-.047.183c-.034.128-.068.256-.106.385-.015.051-.031.1-.047.154-.089.3-.187.595-.3.895l-.006.017c-.047.129-.1.259-.148.389-.026.066-.051.131-.077.2q-.076.189-.158.378c-.029.068-.059.136-.089.2-.057.128-.113.256-.174.385-.025.053-.051.105-.076.158q-.186.387-.393.778c-.03.057-.059.113-.09.17-.068.125-.139.251-.211.377-.043.075-.085.15-.129.224-.072.124-.146.248-.222.372l-.139.223c-.079.127-.158.253-.241.38-.024.038-.051.075-.075.112q-.264.4-.552.8c-.051.071-.1.142-.153.213-.091.123-.184.247-.277.37l-.182.237c-.1.123-.191.245-.29.368-.061.076-.125.152-.187.229-.1.123-.2.246-.306.369h0a40.6,40.6,0,0,1-10.54,8.52" transform="translate(-226.847 235.394)" fill="#e89923" fill-rule="evenodd"></path></g></g></svg>